<svg xmlns="http://www.w3.org/2000/svg" viewBox="0 0 500 500">
  <ellipse style="stroke: rgb(0, 0, 0); fill: rgb(255, 255, 255);" cx="250" cy="250" rx="248.801" ry="248.801"></ellipse>
  <g transform="matrix(1, 0, 0, 1, 23.72579, 7.142399)">
    <g clip-path="url(#cp2)" transform="matrix(0.331761, 0, 0, 0.263167, -884.002991, -53.852306)" style="">
      <clipPath id="cp3">
        <path transform="matrix(2.7777777,0,0,-2.7777777,-308.3333,2625)" d="M 0 0 L 1920 0 L 1920 1080 L 0 1080 Z "></path>
      </clipPath>
      <g clip-path="url(#cp3)">
        <path transform="matrix(2.7777777,0,0,-2.7777777,-308.3333,2625)" d="M 1257.896 345.7005 L 1257.896 345.7005 L 1256.464 231.9443 L 1294.025 339.3301 L 1369.771 768.9083 L 1333.643 775.2787 Z " fill="#023d6b"></path>
      </g>
      <g id="Layer-1" data-name="P"></g>
    </g>
    <g clip-path="url(#cp4)" transform="matrix(0.343692, 0, 0, 0.343692, -937.320251, -14.69353)" style="">
      <clipPath id="cp5">
        <path transform="matrix(2.7777777,0,0,-2.7777777,-308.3333,2625)" d="M 0 0 L 1920 0 L 1920 1080 L 0 1080 Z "></path>
      </clipPath>
      <g clip-path="url(#cp5)">
        <path transform="matrix(2.7777777,0,0,-2.7777777,-308.3333,2625)" d="M 1420.213 872.4236 C 1442.633 840.4057 1434.851 796.2758 1402.833 773.8566 C 1370.816 751.4374 1326.686 759.2187 1304.266 791.2366 C 1281.847 823.2545 1289.629 867.3844 1321.646 889.8036 C 1353.664 912.2228 1397.794 904.4415 1420.213 872.4236 Z M 1420.213 872.4236 " fill="#b51700"></path>
      </g>
    </g>
  </g>
</svg>

